<svg xmlns="http://www.w3.org/2000/svg" viewBox="0 0 1200 630" width="1200" height="630">
  <defs>
    <linearGradient id="bg" x1="0%" y1="0%" x2="100%" y2="100%">
      <stop offset="0%" style="stop-color:#0a0a0f"/>
      <stop offset="100%" style="stop-color:#111827"/>
    </linearGradient>
    <linearGradient id="accent" x1="0%" y1="0%" x2="100%" y2="0%">
      <stop offset="0%" style="stop-color:#10b981"/>
      <stop offset="100%" style="stop-color:#34d399"/>
    </linearGradient>
    <linearGradient id="bar1" x1="0%" y1="0%" x2="0%" y2="100%">
      <stop offset="0%" style="stop-color:#10b981"/>
      <stop offset="100%" style="stop-color:#059669"/>
    </linearGradient>
    <linearGradient id="bar2" x1="0%" y1="0%" x2="0%" y2="100%">
      <stop offset="0%" style="stop-color:#6366f1"/>
      <stop offset="100%" style="stop-color:#4f46e5"/>
    </linearGradient>
    <linearGradient id="bar3" x1="0%" y1="0%" x2="0%" y2="100%">
      <stop offset="0%" style="stop-color:#f59e0b"/>
      <stop offset="100%" style="stop-color:#d97706"/>
    </linearGradient>
    <linearGradient id="bar4" x1="0%" y1="0%" x2="0%" y2="100%">
      <stop offset="0%" style="stop-color:#ef4444"/>
      <stop offset="100%" style="stop-color:#dc2626"/>
    </linearGradient>
    <filter id="glow">
      <feGaussianBlur stdDeviation="3" result="blur"/>
      <feMerge><feMergeNode in="blur"/><feMergeNode in="SourceGraphic"/></feMerge>
    </filter>
  </defs>

  <!-- Background -->
  <rect width="1200" height="630" fill="url(#bg)"/>

  <!-- Subtle grid -->
  <g opacity="0.04" stroke="#fff" stroke-width="0.5">
    <line x1="0" y1="0" x2="0" y2="630"/><line x1="60" y1="0" x2="60" y2="630"/>
    <line x1="120" y1="0" x2="120" y2="630"/><line x1="180" y1="0" x2="180" y2="630"/>
    <line x1="240" y1="0" x2="240" y2="630"/><line x1="300" y1="0" x2="300" y2="630"/>
    <line x1="360" y1="0" x2="360" y2="630"/><line x1="420" y1="0" x2="420" y2="630"/>
    <line x1="480" y1="0" x2="480" y2="630"/><line x1="540" y1="0" x2="540" y2="630"/>
    <line x1="600" y1="0" x2="600" y2="630"/><line x1="660" y1="0" x2="660" y2="630"/>
    <line x1="720" y1="0" x2="720" y2="630"/><line x1="780" y1="0" x2="780" y2="630"/>
    <line x1="840" y1="0" x2="840" y2="630"/><line x1="900" y1="0" x2="900" y2="630"/>
    <line x1="960" y1="0" x2="960" y2="630"/><line x1="1020" y1="0" x2="1020" y2="630"/>
    <line x1="1080" y1="0" x2="1080" y2="630"/><line x1="1140" y1="0" x2="1140" y2="630"/>
    <line x1="0" y1="60" x2="1200" y2="60"/><line x1="0" y1="120" x2="1200" y2="120"/>
    <line x1="0" y1="180" x2="1200" y2="180"/><line x1="0" y1="240" x2="1200" y2="240"/>
    <line x1="0" y1="300" x2="1200" y2="300"/><line x1="0" y1="360" x2="1200" y2="360"/>
    <line x1="0" y1="420" x2="1200" y2="420"/><line x1="0" y1="480" x2="1200" y2="480"/>
    <line x1="0" y1="540" x2="1200" y2="540"/>
  </g>

  <!-- Top accent line -->
  <rect x="0" y="0" width="1200" height="3" fill="url(#accent)"/>

  <!-- Title area -->
  <text x="60" y="65" font-family="system-ui, -apple-system, sans-serif" font-size="36" font-weight="700" fill="#f9fafb" letter-spacing="-0.5">OctantInsight</text>
  <text x="310" y="65" font-family="system-ui, -apple-system, sans-serif" font-size="18" fill="#6b7280" font-weight="400">Autoresearch for Grants</text>

  <!-- Pipeline flow -->
  <g transform="translate(60, 95)">
    <!-- Phase boxes -->
    <rect x="0" y="0" width="140" height="36" rx="6" fill="#1f2937" stroke="#374151" stroke-width="1"/>
    <text x="70" y="23" font-family="ui-monospace, monospace" font-size="12" fill="#10b981" text-anchor="middle" font-weight="600">COLLECT</text>

    <text x="155" y="22" font-family="system-ui, sans-serif" font-size="16" fill="#4b5563">&#x2192;</text>

    <rect x="175" y="0" width="140" height="36" rx="6" fill="#1f2937" stroke="#374151" stroke-width="1"/>
    <text x="245" y="23" font-family="ui-monospace, monospace" font-size="12" fill="#6366f1" text-anchor="middle" font-weight="600">ANALYZE</text>

    <text x="330" y="22" font-family="system-ui, sans-serif" font-size="16" fill="#4b5563">&#x2192;</text>

    <rect x="350" y="0" width="140" height="36" rx="6" fill="#1f2937" stroke="#374151" stroke-width="1"/>
    <text x="420" y="23" font-family="ui-monospace, monospace" font-size="12" fill="#f59e0b" text-anchor="middle" font-weight="600">AGGREGATE</text>

    <text x="505" y="22" font-family="system-ui, sans-serif" font-size="16" fill="#4b5563">&#x2192;</text>

    <rect x="525" y="0" width="140" height="36" rx="6" fill="#1f2937" stroke="#374151" stroke-width="1"/>
    <text x="595" y="23" font-family="ui-monospace, monospace" font-size="12" fill="#34d399" text-anchor="middle" font-weight="600">RANK</text>

    <!-- Time label -->
    <text x="720" y="23" font-family="ui-monospace, monospace" font-size="11" fill="#4b5563">~100s total</text>
  </g>

  <!-- Divider -->
  <line x1="60" y1="150" x2="1140" y2="150" stroke="#1f2937" stroke-width="1"/>

  <!-- Left panel: Rankings -->
  <g transform="translate(60, 170)">
    <text x="0" y="0" font-family="ui-monospace, monospace" font-size="11" fill="#6b7280" letter-spacing="1.5">PROJECT RANKINGS</text>

    <!-- Rank bars -->
    <g transform="translate(0, 20)">
      <text x="0" y="14" font-family="ui-monospace, monospace" font-size="11" fill="#9ca3af">1.</text>
      <text x="22" y="14" font-family="system-ui, sans-serif" font-size="13" fill="#e5e7eb" font-weight="500">Protocol Guild</text>
      <rect x="160" y="2" width="200" height="14" rx="3" fill="#1f2937"/>
      <rect x="160" y="2" width="160" height="14" rx="3" fill="url(#bar1)"/>
      <text x="365" y="14" font-family="ui-monospace, monospace" font-size="11" fill="#10b981" font-weight="600">8.0</text>
      <text x="393" y="14" font-family="system-ui, sans-serif" font-size="10" fill="#4b5563">stable</text>
    </g>

    <g transform="translate(0, 46)">
      <text x="0" y="14" font-family="ui-monospace, monospace" font-size="11" fill="#9ca3af">2.</text>
      <text x="22" y="14" font-family="system-ui, sans-serif" font-size="13" fill="#e5e7eb" font-weight="500">L2Beat</text>
      <rect x="160" y="2" width="200" height="14" rx="3" fill="#1f2937"/>
      <rect x="160" y="2" width="160" height="14" rx="3" fill="url(#bar2)"/>
      <text x="365" y="14" font-family="ui-monospace, monospace" font-size="11" fill="#6366f1" font-weight="600">8.0</text>
      <text x="393" y="14" font-family="system-ui, sans-serif" font-size="10" fill="#34d399">growing</text>
    </g>

    <g transform="translate(0, 72)">
      <text x="0" y="14" font-family="ui-monospace, monospace" font-size="11" fill="#9ca3af">3.</text>
      <text x="22" y="14" font-family="system-ui, sans-serif" font-size="13" fill="#e5e7eb" font-weight="500">Gitcoin</text>
      <rect x="160" y="2" width="200" height="14" rx="3" fill="#1f2937"/>
      <rect x="160" y="2" width="160" height="14" rx="3" fill="url(#bar1)"/>
      <text x="365" y="14" font-family="ui-monospace, monospace" font-size="11" fill="#10b981" font-weight="600">8.0</text>
      <text x="393" y="14" font-family="system-ui, sans-serif" font-size="10" fill="#4b5563">stable</text>
    </g>

    <g transform="translate(0, 98)">
      <text x="0" y="14" font-family="ui-monospace, monospace" font-size="11" fill="#9ca3af">4.</text>
      <text x="22" y="14" font-family="system-ui, sans-serif" font-size="13" fill="#e5e7eb" font-weight="500">Rotki</text>
      <rect x="160" y="2" width="200" height="14" rx="3" fill="#1f2937"/>
      <rect x="160" y="2" width="160" height="14" rx="3" fill="url(#bar2)"/>
      <text x="365" y="14" font-family="ui-monospace, monospace" font-size="11" fill="#6366f1" font-weight="600">8.0</text>
      <text x="393" y="14" font-family="system-ui, sans-serif" font-size="10" fill="#34d399">growing</text>
    </g>

    <g transform="translate(0, 124)">
      <text x="0" y="14" font-family="ui-monospace, monospace" font-size="11" fill="#9ca3af">5.</text>
      <text x="22" y="14" font-family="system-ui, sans-serif" font-size="13" fill="#e5e7eb" font-weight="500">DappNode</text>
      <rect x="160" y="2" width="200" height="14" rx="3" fill="#1f2937"/>
      <rect x="160" y="2" width="150" height="14" rx="3" fill="url(#bar3)"/>
      <text x="365" y="14" font-family="ui-monospace, monospace" font-size="11" fill="#f59e0b" font-weight="600">7.5</text>
      <text x="393" y="14" font-family="system-ui, sans-serif" font-size="10" fill="#34d399">growing</text>
    </g>

    <g transform="translate(0, 150)">
      <text x="0" y="14" font-family="ui-monospace, monospace" font-size="11" fill="#6b7280">...</text>
    </g>

    <g transform="translate(0, 170)">
      <text x="0" y="14" font-family="ui-monospace, monospace" font-size="11" fill="#9ca3af">9.</text>
      <text x="22" y="14" font-family="system-ui, sans-serif" font-size="13" fill="#e5e7eb" font-weight="500">BrightID</text>
      <rect x="160" y="2" width="200" height="14" rx="3" fill="#1f2937"/>
      <rect x="160" y="2" width="130" height="14" rx="3" fill="url(#bar4)"/>
      <text x="365" y="14" font-family="ui-monospace, monospace" font-size="11" fill="#ef4444" font-weight="600">6.5</text>
      <text x="393" y="14" font-family="system-ui, sans-serif" font-size="10" fill="#ef4444">declining</text>
    </g>
  </g>

  <!-- Right panel: Key metrics -->
  <g transform="translate(560, 170)">
    <text x="0" y="0" font-family="ui-monospace, monospace" font-size="11" fill="#6b7280" letter-spacing="1.5">KEY FINDINGS</text>

    <!-- Metric cards -->
    <g transform="translate(0, 20)">
      <rect x="0" y="0" width="260" height="80" rx="8" fill="#1f2937" stroke="#374151" stroke-width="1"/>
      <text x="16" y="28" font-family="system-ui, sans-serif" font-size="28" fill="#10b981" font-weight="700">2,377</text>
      <text x="120" y="28" font-family="system-ui, sans-serif" font-size="14" fill="#6b7280">ETH tracked</text>
      <text x="16" y="52" font-family="system-ui, sans-serif" font-size="12" fill="#9ca3af">10 projects across 5 epochs</text>
      <text x="16" y="68" font-family="system-ui, sans-serif" font-size="12" fill="#9ca3af">6 categories analyzed</text>
    </g>

    <g transform="translate(275, 20)">
      <rect x="0" y="0" width="260" height="80" rx="8" fill="#1f2937" stroke="#374151" stroke-width="1"/>
      <text x="16" y="28" font-family="system-ui, sans-serif" font-size="28" fill="#ef4444" font-weight="700">45%</text>
      <text x="90" y="28" font-family="system-ui, sans-serif" font-size="14" fill="#6b7280">concentration</text>
      <text x="16" y="52" font-family="system-ui, sans-serif" font-size="12" fill="#9ca3af">Gitcoin + Protocol Guild</text>
      <text x="16" y="68" font-family="system-ui, sans-serif" font-size="12" fill="#9ca3af">= portfolio-level systemic risk</text>
    </g>

    <g transform="translate(0, 115)">
      <rect x="0" y="0" width="260" height="80" rx="8" fill="#1f2937" stroke="#374151" stroke-width="1"/>
      <text x="16" y="28" font-family="system-ui, sans-serif" font-size="28" fill="#f59e0b" font-weight="700">60%</text>
      <text x="90" y="28" font-family="system-ui, sans-serif" font-size="14" fill="#6b7280">decay correlation</text>
      <text x="16" y="52" font-family="system-ui, sans-serif" font-size="12" fill="#9ca3af">Declining allocations correlate</text>
      <text x="16" y="68" font-family="system-ui, sans-serif" font-size="12" fill="#9ca3af">with declining commit frequency</text>
    </g>

    <g transform="translate(275, 115)">
      <rect x="0" y="0" width="260" height="80" rx="8" fill="#1f2937" stroke="#374151" stroke-width="1"/>
      <text x="16" y="28" font-family="system-ui, sans-serif" font-size="28" fill="#6366f1" font-weight="700">7.5</text>
      <text x="70" y="28" font-family="system-ui, sans-serif" font-size="14" fill="#6b7280">avg score</text>
      <text x="16" y="52" font-family="system-ui, sans-serif" font-size="12" fill="#9ca3af">4-dimension weighted composite</text>
      <text x="16" y="68" font-family="system-ui, sans-serif" font-size="12" fill="#9ca3af">8 of 10 projects score &gt;7</text>
    </g>
  </g>

  <!-- Bottom: Scoring dimensions -->
  <g transform="translate(60, 430)">
    <text x="0" y="0" font-family="ui-monospace, monospace" font-size="11" fill="#6b7280" letter-spacing="1.5">SCORING DIMENSIONS</text>

    <g transform="translate(0, 18)">
      <rect x="0" y="0" width="250" height="44" rx="6" fill="#1f2937" stroke="#374151" stroke-width="1"/>
      <circle cx="22" cy="22" r="8" fill="#10b981" opacity="0.2"/>
      <circle cx="22" cy="22" r="4" fill="#10b981"/>
      <text x="40" y="18" font-family="system-ui, sans-serif" font-size="13" fill="#e5e7eb" font-weight="600">Impact</text>
      <text x="200" y="18" font-family="ui-monospace, monospace" font-size="12" fill="#10b981" font-weight="600" text-anchor="end">0.35</text>
      <text x="40" y="34" font-family="system-ui, sans-serif" font-size="10" fill="#6b7280">Value per ETH received</text>
    </g>

    <g transform="translate(265, 18)">
      <rect x="0" y="0" width="250" height="44" rx="6" fill="#1f2937" stroke="#374151" stroke-width="1"/>
      <circle cx="22" cy="22" r="8" fill="#6366f1" opacity="0.2"/>
      <circle cx="22" cy="22" r="4" fill="#6366f1"/>
      <text x="40" y="18" font-family="system-ui, sans-serif" font-size="13" fill="#e5e7eb" font-weight="600">Sustainability</text>
      <text x="200" y="18" font-family="ui-monospace, monospace" font-size="12" fill="#6366f1" font-weight="600" text-anchor="end">0.25</text>
      <text x="40" y="34" font-family="system-ui, sans-serif" font-size="10" fill="#6b7280">Long-term health trajectory</text>
    </g>

    <g transform="translate(530, 18)">
      <rect x="0" y="0" width="250" height="44" rx="6" fill="#1f2937" stroke="#374151" stroke-width="1"/>
      <circle cx="22" cy="22" r="8" fill="#f59e0b" opacity="0.2"/>
      <circle cx="22" cy="22" r="4" fill="#f59e0b"/>
      <text x="40" y="18" font-family="system-ui, sans-serif" font-size="13" fill="#e5e7eb" font-weight="600">Community</text>
      <text x="200" y="18" font-family="ui-monospace, monospace" font-size="12" fill="#f59e0b" font-weight="600" text-anchor="end">0.20</text>
      <text x="40" y="34" font-family="system-ui, sans-serif" font-size="10" fill="#6b7280">Genuine engagement depth</text>
    </g>

    <g transform="translate(795, 18)">
      <rect x="0" y="0" width="250" height="44" rx="6" fill="#1f2937" stroke="#374151" stroke-width="1"/>
      <circle cx="22" cy="22" r="8" fill="#ec4899" opacity="0.2"/>
      <circle cx="22" cy="22" r="4" fill="#ec4899"/>
      <text x="40" y="18" font-family="system-ui, sans-serif" font-size="13" fill="#e5e7eb" font-weight="600">Funding Alignment</text>
      <text x="200" y="18" font-family="ui-monospace, monospace" font-size="12" fill="#ec4899" font-weight="600" text-anchor="end">0.20</text>
      <text x="40" y="34" font-family="system-ui, sans-serif" font-size="10" fill="#6b7280">Is funding calibrated to impact?</text>
    </g>
  </g>

  <!-- Bottom bar: Allocation signals -->
  <g transform="translate(60, 520)">
    <text x="0" y="0" font-family="ui-monospace, monospace" font-size="11" fill="#6b7280" letter-spacing="1.5">ALLOCATION SIGNALS</text>

    <g transform="translate(0, 16)">
      <rect x="0" y="0" width="180" height="30" rx="15" fill="#10b981" opacity="0.15" stroke="#10b981" stroke-width="1"/>
      <text x="90" y="20" font-family="ui-monospace, monospace" font-size="11" fill="#10b981" text-anchor="middle" font-weight="600">INCREASE</text>
    </g>
    <text x="190" y="30" font-family="system-ui, sans-serif" font-size="11" fill="#4b5563">score &gt;7 + growing</text>

    <g transform="translate(370, 16)">
      <rect x="0" y="0" width="180" height="30" rx="15" fill="#f59e0b" opacity="0.15" stroke="#f59e0b" stroke-width="1"/>
      <text x="90" y="20" font-family="ui-monospace, monospace" font-size="11" fill="#f59e0b" text-anchor="middle" font-weight="600">MAINTAIN</text>
    </g>
    <text x="560" y="30" font-family="system-ui, sans-serif" font-size="11" fill="#4b5563">score 5-6 + stable</text>

    <g transform="translate(740, 16)">
      <rect x="0" y="0" width="180" height="30" rx="15" fill="#ef4444" opacity="0.15" stroke="#ef4444" stroke-width="1"/>
      <text x="90" y="20" font-family="ui-monospace, monospace" font-size="11" fill="#ef4444" text-anchor="middle" font-weight="600">FLAG FOR REVIEW</text>
    </g>
    <text x="930" y="30" font-family="system-ui, sans-serif" font-size="11" fill="#4b5563">score &lt;5 or declining</text>
  </g>

  <!-- Bottom info bar -->
  <rect x="0" y="590" width="1200" height="40" fill="#0d1117"/>
  <text x="60" y="615" font-family="ui-monospace, monospace" font-size="11" fill="#4b5563">Venice AI (llama-3.3-70b, no data retention)</text>
  <text x="420" y="615" font-family="ui-monospace, monospace" font-size="11" fill="#4b5563">TypeScript + GitHub API</text>
  <text x="660" y="615" font-family="ui-monospace, monospace" font-size="11" fill="#4b5563">Octant Epochs 1-5</text>
  <text x="1140" y="615" font-family="ui-monospace, monospace" font-size="11" fill="#10b981" text-anchor="end">github.com/mxber2022/octant-analyzer</text>
</svg>
